<svg xmlns="http://www.w3.org/2000/svg" width="1200" height="675" viewBox="0 0 1200 675" role="img" aria-label="Site preview, car service">
  <rect width="1200" height="675" fill="#efeae0"/>
  <circle cx="1090" cy="120" r="190" fill="#0f3d2e" opacity="0.06"/>
  <circle cx="140" cy="600" r="150" fill="#8f6a1f" opacity="0.06"/>

  <rect x="230" y="120" width="740" height="450" rx="26" fill="#ffffff" stroke="#e7e2da" stroke-width="2"/>
  <path d="M230 146 a26 26 0 0 1 26 -26 h688 a26 26 0 0 1 26 26 v34 h-740 z" fill="#0f3d2e"/>
  <circle cx="266" cy="150" r="6" fill="#ffffff" opacity="0.5"/>
  <circle cx="290" cy="150" r="6" fill="#ffffff" opacity="0.5"/>
  <circle cx="314" cy="150" r="6" fill="#ffffff" opacity="0.5"/>

  <rect x="280" y="230" width="360" height="26" rx="8" fill="#1b201c"/>
  <rect x="280" y="274" width="260" height="26" rx="8" fill="#1b201c"/>
  <rect x="280" y="336" width="170" height="46" rx="23" fill="#8f6a1f"/>
  <rect x="280" y="430" width="420" height="14" rx="7" fill="#e7e2da"/>
  <rect x="280" y="458" width="360" height="14" rx="7" fill="#e7e2da"/>
  <rect x="280" y="486" width="300" height="14" rx="7" fill="#e7e2da"/>

  <circle cx="820" cy="310" r="78" fill="#efeae0"/>
  <g transform="translate(820,310)" fill="none" stroke="#0f3d2e" stroke-width="6" stroke-linecap="round" stroke-linejoin="round">
    <path d="M-40 20 v-12 l14 -26 h40 l14 26 v12"/>
    <line x1="-42" y1="20" x2="44" y2="20"/>
    <circle cx="-22" cy="22" r="9" fill="#ffffff"/>
    <circle cx="24" cy="22" r="9" fill="#ffffff"/>
  </g>
</svg>
